# xmcd
#
# Track frame offsets:
#	150
#	20107
#	42310
#	62600
#	78372
#	92160
#	113055
#	126265
#	144070
#	161507
#
# Disc length: 2552 seconds
# Revision: 0
# Processed by: cddbd v1.5.2PL0 Copyright (c) Steve Scherf et al.
# Submitted via: dBpowerAMP V12.0
#
DISCID=7c09f60a
DTITLE=Frimer Band - Handmade
DYEAR=1995
DGENRE=Blues
TTITLE0=You Made The Calls
TTITLE1=The Moon Is Full
TTITLE2=Haven't Been The Same
TTITLE3=John Lazy
TTITLE4=Third Set
TTITLE5=Leave Me Forever
TTITLE6=It Was You And Me
TTITLE7=My Moonlight Rival
TTITLE8=Blues In November
TTITLE9=Runnin' The Blues
EXTD=
EXTT0=
EXTT1=
EXTT2=
EXTT3=
EXTT4=
EXTT5=
EXTT6=
EXTT7=
EXTT8=
EXTT9=
PLAYORDER=
